<?xml version="1.0" standalone="no"?>
<!DOCTYPE svg PUBLIC "-//W3C//DTD SVG 20010904//EN"
 "http://www.w3.org/TR/2001/REC-SVG-20010904/DTD/svg10.dtd">
<svg version="1.0" xmlns="http://www.w3.org/2000/svg"
 width="80.000000pt" height="80.000000pt" viewBox="0 0 80.000000 80.000000"
 preserveAspectRatio="xMidYMid meet">
<metadata>
Created by potrace 1.14, written by Peter Selinger 2001-2017
</metadata>
<g transform="translate(0.000000,80.000000) scale(0.100000,-0.100000)"
fill="#000000" stroke="none">
<path d="M314 690 c-22 -11 -55 -36 -74 -55 -32 -33 -33 -35 -16 -54 12 -13
18 -39 20 -83 3 -59 27 -122 68 -179 18 -26 4 -43 -51 -63 -29 -10 -68 -33
-87 -51 -28 -27 -34 -40 -34 -74 l0 -41 260 0 260 0 0 39 c0 62 -37 96 -155
141 -30 11 -32 33 -5 67 11 14 20 31 20 38 0 7 8 23 18 36 14 19 19 44 20 110
2 94 -13 130 -61 145 -12 4 -33 15 -46 25 -31 25 -86 24 -137 -1z m129 -20
c14 -11 30 -20 37 -20 6 0 22 -11 35 -25 18 -17 25 -34 24 -62 l-1 -38 -14 32
c-20 46 -44 56 -88 38 -19 -8 -47 -15 -61 -15 -34 0 -65 -16 -91 -47 l-21 -24
-1 30 c0 16 -5 39 -11 50 -10 17 -5 24 32 54 62 51 117 60 160 27z m67 -167
c0 -36 3 -44 15 -39 9 3 15 0 15 -10 0 -8 -6 -17 -14 -20 -8 -3 -17 -20 -20
-38 -11 -60 -82 -105 -133 -85 -41 15 -71 47 -79 82 -3 17 -13 37 -20 45 -19
18 -18 36 1 28 10 -3 15 1 15 13 0 47 40 81 97 81 15 1 42 7 58 14 27 13 32
12 48 -6 11 -13 17 -37 17 -65z m-79 -214 c30 10 30 10 27 -21 -2 -23 -11 -37
-30 -48 -25 -13 -31 -13 -55 0 -20 11 -29 25 -31 48 -3 31 -3 31 27 21 22 -8
40 -8 62 0z m-93 -69 c41 -41 83 -40 124 0 l30 31 45 -17 c58 -23 103 -65 103
-98 l0 -26 -240 0 -240 0 0 23 c0 35 26 64 83 92 29 13 55 25 59 25 3 0 20
-13 36 -30z"/>
<path d="M330 454 c0 -17 22 -14 28 4 2 7 -3 12 -12 12 -9 0 -16 -7 -16 -16z"/>
<path d="M442 458 c6 -18 28 -21 28 -4 0 9 -7 16 -16 16 -9 0 -14 -5 -12 -12z"/>
<path d="M190 140 c0 -5 5 -10 10 -10 6 0 10 5 10 10 0 6 -4 10 -10 10 -5 0
-10 -4 -10 -10z"/>
<path d="M230 140 c0 -5 5 -10 10 -10 6 0 10 5 10 10 0 6 -4 10 -10 10 -5 0
-10 -4 -10 -10z"/>
<path d="M270 140 c0 -5 5 -10 10 -10 6 0 10 5 10 10 0 6 -4 10 -10 10 -5 0
-10 -4 -10 -10z"/>
<path d="M310 140 c0 -5 5 -10 10 -10 6 0 10 5 10 10 0 6 -4 10 -10 10 -5 0
-10 -4 -10 -10z"/>
<path d="M350 140 c0 -5 5 -10 10 -10 6 0 10 5 10 10 0 6 -4 10 -10 10 -5 0
-10 -4 -10 -10z"/>
<path d="M390 140 c0 -5 5 -10 10 -10 6 0 10 5 10 10 0 6 -4 10 -10 10 -5 0
-10 -4 -10 -10z"/>
<path d="M430 140 c0 -5 5 -10 10 -10 6 0 10 5 10 10 0 6 -4 10 -10 10 -5 0
-10 -4 -10 -10z"/>
<path d="M470 140 c0 -5 5 -10 10 -10 6 0 10 5 10 10 0 6 -4 10 -10 10 -5 0
-10 -4 -10 -10z"/>
<path d="M510 140 c0 -5 5 -10 10 -10 6 0 10 5 10 10 0 6 -4 10 -10 10 -5 0
-10 -4 -10 -10z"/>
<path d="M550 140 c0 -5 5 -10 10 -10 6 0 10 5 10 10 0 6 -4 10 -10 10 -5 0
-10 -4 -10 -10z"/>
<path d="M590 140 c0 -5 5 -10 10 -10 6 0 10 5 10 10 0 6 -4 10 -10 10 -5 0
-10 -4 -10 -10z"/>
</g>
</svg>
